<?xml version="1.0" encoding="UTF-8"?>
<svg id="Capa_2" data-name="Capa 2" xmlns="http://www.w3.org/2000/svg" viewBox="0 0 465.93 466.59">
  <defs>
    <style>
      .cls-1 {
        font-family: Arial-Black, 'Arial Black';
        font-size: 51.57px;
        font-weight: 800;
      }

      .cls-1, .cls-2 {
        fill: #fedc18;
      }

      .cls-3 {
        letter-spacing: -.03em;
      }

      .cls-2 {
        stroke-width: 0px;
      }
    </style>
  </defs>
  <g id="Capa_1-2" data-name="Capa 1">
    <g>
      <path class="cls-2" d="M209.2,1.34c-23,2.6-43.6,7.7-63.5,15.8C78.9,44.34,28.8,99.94,8.7,169.34,2.7,190.14,0,210.14,0,233.84c.1,24.6,3.3,45.9,10.3,69.1l2.1,6.9h78.8v-87.5c0-57.1.3-87.5,1-87.5.5,0,4,1.3,7.7,3,6.9,3,32,13.4,47.3,19.7,4.7,1.9,13.7,5.6,20,8.3,16.4,6.9,42.4,17.8,49.8,20.8l6.2,2.5v60.4c0,59.6,0,60.3,2,60.3s2-.7,2-59.5v-59.5l2.8.7c3,.9,11.4,1,15.2.3l2.5-.5.3,59.2c.2,51.8.4,59.3,1.7,59.3s1.5-7.5,1.5-60.4v-60.3l5.8-4c16.9-11.8,45.9-27.6,65.2-35.6,13.6-5.5,31.8-11.1,49.3-15.1l2.7-.6v176l39.7-.2,39.7-.3,2.8-9.5c14.7-49.1,12.3-105.5-6.6-152.1C416.2,64.54,340.6,8.44,251.9.94c-15.9-1.4-27.9-1.2-42.7.4ZM204.2,117.34c0,19.5-.3,35.5-.6,35.5-1.5,0-19.9-14.8-26.7-21.4-16-15.5-17.3-26.3-4.4-35.9,4.9-3.7,13.8-8.3,21.4-11.1,11.4-4.2,10.3-7.7,10.3,32.9ZM326,119.94c-.7.5-3.5,1.6-6.3,2.4-23,7.5-54.4,29.5-71.5,50.2-4.1,5-7.7,9-7.9,8.8-.6-.7,3-10.8,6.1-17,5.7-11.3,14.3-23,25.8-34.9,16.1-16.5,32.9-28.7,48.7-35.2l5.8-2.3.3,13.6c.2,10.3-.1,13.8-1,14.4ZM130.7,129.24c10.3,7.1,18.2,11.4,45.6,25.1,31.6,15.7,35.5,17.9,48.1,26.2,19.1,12.7,14.8,12-22.2-3.6-4.1-1.8-11.8-5-17-7.1s-13.3-5.5-18-7.5-12.8-5.4-18-7.5-13.3-5.5-18-7.5-10.3-4.3-12.5-5.2c-6.6-2.7-6.5-2.4-6.5-16v-12.5l6.3,5.7c3.4,3.2,8.9,7.6,12.2,9.9ZM351,126.44l-.3,9.6-15,5.2c-26.9,9.4-52.1,22.2-79.8,40.7-8.4,5.6-12.5,7.5-14.6,6.7-1.9-.7,6.7-11.6,18.4-23.4,18.1-18.2,35.9-30,58.6-38.8,10.2-4,27.9-9.3,31.7-9.5,1-.1,1.2,2.2,1,9.5ZM177.8,136.74c3.8,3.5,12.3,10.4,18.9,15.4,13.8,10.4,26.9,21.2,30.5,25.2,2.1,2.3,1.6,2.1-3.5-1.3-8.4-5.5-29.4-16.8-46.2-24.7l-14.3-6.8v-23.9l3.8,4.9c2.1,2.6,7,7.7,10.8,11.2Z"/>
      <path class="cls-2" d="M74.2,404.34c.7.9,5.6,5.1,10.9,9.3,47.2,38,106.2,56.8,163.9,52.3,15.2-1.2,34.1-4.4,45-7.6,2.8-.8,7.3-2.1,10-2.8,12.6-3.6,34.8-13.8,50.1-22.9,10.2-6.2,25.7-17.7,33.1-24.6l5.5-5.1-159.9-.1c-144.1,0-159.7.2-158.6,1.5Z"/>
      <text class="cls-1" transform="translate(17.69 376.13) scale(.78 1)"><tspan x="0" y="0">SAZÓN DEL </tspan><tspan class="cls-3" x="346.66" y="0">B</tspan><tspan x="385.44" y="0">UENO</tspan></text>
    </g>
  </g>
</svg>