<?xml version="1.0" encoding="UTF-8"?>
<svg id="Capa_2" data-name="Capa 2" xmlns="http://www.w3.org/2000/svg" version="1.1" viewBox="0 0 642.2 172.4">
  <defs>
    <style>
      .cls-1 {
        fill: #f3c332;
        stroke-width: 0px;
      }
    </style>
  </defs>
  <g id="Capa_1-2" data-name="Capa 1-2">
    <g>
      <path class="cls-1" d="M497.8,111.7c-18.2-.6-28.9,10.8-28.9,30.5s8.7,29.4,26.3,29.9c15.5.2,26.1-6.8,26.6-20.9,0-3.7-2.1-3.9-6.3-4.1-5.1-.1-9-.1-11.9,0-3.5.1-4.4.9-4.7,2.6,0,1.3-.9,4.4-2.8,4.4-2,.1-3-1.4-3.3-6.5v-2.2c.1-.8.6-1.3,1.4-1.3,14.7.2,23.1-.1,25.3-.9,2-.8,3-4.1,3.1-9.7.3-13.5-9.6-21.6-24.9-21.6h0ZM498.5,131.4v2.9c-.3,1-1.8,1.5-4.4,1.3-1.4,0-1-3.3-.9-4.6.1-2.2,1-3.7,3-3.6,1.7.1,2.4,1.4,2.3,4h0Z"/>
      <path class="cls-1" d="M366.3,27.8c1.5,1,3.2.8,4.9-.7,3.1-2.3,6.1-4.7,8.9-7.3,3.2-2.8,5.5-4.8,6.9-6.1,2-1.8,2.6-3.4,2.1-4.9-.8-1.7-2.5-3.9-5-6.4-3.2-2.8-4.4-2.6-7.6,0-.8.6-4,3.6-5.5,4.8-3.5,2.9-6.6,5.6-9.5,8.4-2.2,2-2.3,4.2-.2,7,1.7,2.4,3.3,4.2,5,5.3h0Z"/>
      <path class="cls-1" d="M566.4,112.2c-8.9.2-12.8,2.3-16,8.8-1.3,2.5-2,6.1-2.8,6.1s-.7-4.1-1.5-8.6c-1-5.8-3.3-6.3-7.6-6.5-4.8-.2-11.5.7-11.5,5s-.1,10.8-.1,34,.1,5,.1,8.6v7.1c0,3.6.7,4.4,4,4.9,3.4.6,7.1.8,10.9.5,4.3-.2,7-1.1,8-2.9.8-1.3,1.3-5.3,1.3-11.9v-22.3c0-2.1.5-4.2,2.4-4.7,3.8-.9,3.7,4.2,3.7,9.9v24.4c0,2.4.3,4,1.2,5,.6,1,1.7,1.7,3.4,2.1,1.3.3,3.8.6,7.7.6s3.4-.1,4.7-.2c2-.2,3.8-.8,5-2.8,1-1.5,1.7-5.6,1.8-12.5.1-6.8.2-11.7.2-14.9v-8.6c0-12.8-3.9-21.3-15-21.1h0Z"/>
      <path class="cls-1" d="M633.2,117.4c-4.6-3.8-10.7-5.8-18.3-5.9-8.4,0-15,2.3-20.2,7-5.8,5.3-8.8,13.2-8.8,23.7s2.8,17.9,8.1,23c4.8,4.6,11.2,6.9,19.3,7,8.4,0,15.1-2.3,20.3-6.9,5.6-5.1,8.5-13.2,8.5-23.8.1-10.9-2.9-18.9-8.9-24.1h0ZM618,147.8c-.2,3.9-1.5,6.5-4.2,6.5-2.5-.1-3.8-3.6-3.8-10.2.1-3.4-.6-14.2,4.1-14.4,2.6-.1,3.9,4,3.9,11.3v6.8h0Z"/>
      <path class="cls-1" d="M245.3,87.9c2.6,2.6,6.2,3.9,10.8,3.9s5.3-.6,7.2-1.7c1.1-.6,2.2-1.3,3.2-2.3.6-.7,1.1-1,1.5-1s.6.7.6,1.4v.6c0,.3,5.8,3.1,5.8,3.1,3.1.1,6.5,0,10.2-.5,3.1-.6,3.7-1.6,3.8-4.9.1-2.4.1-7.7.1-16,0-14.8.3-31.6.2-33.1-.2-3.8-4.8-4.9-11-4.9s-11.1.8-11.1,3.2-.1,1.3-.3,1.6c-.2.2-.5.3-.8.1l-5.3-4.5c-2.1-1-4.2-1.4-7-1.1-4.4.3-7.8,2.3-10.3,5.8-3.6,5.2-5.4,13.5-5.4,25s2.6,20.7,7.8,25.4h0ZM263.5,49.8c1.7.2,2.2,2.8,2.2,4.6v16c0,2.8-.8,4.2-2.5,4.3-1.1,0-1.7-.6-2.2-1.9-.2-.6-.3-1.1-.5-1.6l-.3-3.3c-.1-2.3-.2-5-.2-8.4,0-6.9,1.3-10.1,3.5-9.7h0Z"/>
      <path class="cls-1" d="M189.1,59.4c2.6,2.2,5.8,3.5,9.7,4.1,2.4.3,5.5.6,9.4.7,2.4.1,3.7,1.5,3.7,4s-.1,5.6-.2,6.1c-.5,1.7-1.4,2.5-2.9,2.5s-1.8-.7-2.2-1.9c-.1-.3-.2-2.9-.3-3.8,0-.2,0-.5-.1-.7-.3-1.5-1.3-2.2-4.6-2.3-6.3-.3-10.4-.6-12.5-.5-4,.1-5.3,1.7-5.4,5.5-.1,4,.9,7.6,3.3,10.7,4.1,5.6,11.4,8.2,21.9,7.9,7.9-.2,13.9-2.3,18-6.1,5.1-5,6.5-10.2,6.5-18.1s-1.1-10.5-3.6-13.6c-2.5-3.4-6.1-5.3-10.8-5.5l-3-.2c-1.7-.1-3.2-.1-4.2-.2-3.1-.3-4.9-.8-5.5-1.5-.6-.7-.9-1.7-.9-3.1,0-3.8,0-6,.1-6.4.3-1.3,1-2,2.3-2s1.8.6,2.2,1.8c.1.2.1,1.6.1,4.1s.6,2.4,2.4,2.8c4.4.6,10.2.7,14.3-1.8,3.4-2.1,3.8-4.1,3.8-5.8,0-5.7-2.1-12.9-10.4-15.9-3.3-1.1-7.3-1.7-12.1-1.7-9.1,0-15.8,2.5-20.1,7.7-3.1,3.8-4.8,8.6-4.9,14.7-.2,8.7,1.8,14.9,6.1,18.7h0Z"/>
      <path class="cls-1" d="M235,100.2c-2.4-.8-5.5-1.4-9.2-1.5-4.1,0-7,.5-8.7,1.3-2.1.9-3.1,2.3-3.2,4v10.1c0,1.9-.1,3-.3,3.3-.3.5-.8.2-1.5-.6-1.9-1.9-3.6-3.2-4.9-3.8-2.2-1-4.6-1.4-7.4-1.2-4.7.3-8.4,2.3-11,5.8-3.8,5.2-5.7,13.5-5.7,25s2.8,20.7,8.2,25.4c2.9,2.6,6.6,3.9,11.4,3.9s5.6-.6,7.8-1.7c1.1-.6,2.3-1.3,3.3-2.3.7-.7,1.3-1,1.6-1s.7.7.7,1.4v.6c0,.3,3.8,3,6.1,3.1h.1c3.3.1,6.9,0,10.9-.5,3.2-.6,3.9-1.6,4-4.9.1-2.4.1-7.7.1-16,0-14.3,0-25,.1-32.1.3-7.7.3-12.6.1-14.9-.1-1.7-1-2.9-2.5-3.4h0ZM213,150.6c0,2.8-.9,4.2-2.6,4.4-1.3,0-1.9-.6-2.4-1.9-.2-.6-.3-1.1-.5-1.6l-.3-3.3c-.1-2.3-.2-5-.2-8.4,0-6.9,1.3-10.1,3.8-9.7,1,.1,1.6.7,1.8,1.9.3.7.5,1.6.5,2.6v16h0Z"/>
      <path class="cls-1" d="M271.1,111.7c-18.2-.6-28.9,10.8-28.9,30.5s8.7,29.4,26.3,29.9c15.5.2,26.1-6.8,26.6-20.9,0-3.7-2.1-3.9-6.3-4.1-5.1-.1-9-.1-11.9,0-3.5.1-4.4.9-4.7,2.6,0,1.3-.9,4.4-2.8,4.4-2,.1-3-1.4-3.3-6.5v-2.2c.1-.8.6-1.3,1.4-1.3,14.7.2,23.1-.1,25.3-.9,2-.8,3-4.1,3.1-9.7.3-13.5-9.6-21.6-24.9-21.6h0ZM271.8,131.4v2.9c-.3,1-1.8,1.5-4.4,1.3-1.4,0-1-3.3-.9-4.6.1-2.2,1-3.7,3-3.6,1.7.1,2.4,1.4,2.3,4h0Z"/>
      <path class="cls-1" d="M389.8,111.9c-5.4-.3-9.9,1.4-13.4,5-.7.7-1.3.9-1.6.7-.3-.1-.5-.9-.5-2.3v-11.3c0-1.7-1-3.1-3.1-4-1.6-.8-4.5-1.3-8.6-1.3-3.8.1-6.8.7-9,1.5-1.6.6-2.5,1.7-2.6,3.4v14.9c0,3.6,0,8.8.1,16,0,7.2,0,12.5.1,16,0,9.5,0,14.8.1,16,.1,3.6.7,4.4,3.9,4.9,4,.6,7.6.7,10.9.5,3.7-.2,5.7-1.1,6.1-2.6.3-1.3.1-2.4.8-2.4s1.4.6,2.9,1.8c2.4,2.1,5.7,3.1,10,3.1,7.7,0,13.4-4.6,16-11.2s3.7-12.8,3.7-19.2c0-11.6-1.7-19.6-5-24.1-2.6-3.3-6.2-5.2-10.6-5.5h0ZM380.9,152c-.5,1.8-1.4,3.1-2.9,3-2.2-.1-2.5-1.6-2.6-4.4-.1-3.9,0-9.3.1-16,0-1.3.1-2.1.2-2.6.6-1.3,1.3-1.8,2.1-1.9,1.7-.3,2.8.9,3.3,4,.3,1.3.5,3.6.5,6.9,0,5.4-.2,9.2-.7,11.1h0Z"/>
      <path class="cls-1" d="M339.4,34.2c-1.1-1-3.1-1.7-5.7-2-.9-.1-6-.5-15-.8-10-.2-16.6-.1-20,.3-2.9.5-3.8,2.1-4.1,6.1-.2,1.3-.3,3.2-.2,5.8s.3,4.6.7,5.6c.6,1.7,1.8,2.6,3.8,2.8h12.4c1.6,0,1.4,1.8.5,2.8l-8.1,7.8c-3.4,3.2-6.2,6-8.4,8.1-1,1-1.7,2.6-1.8,4.6-.2,2.4.2,5,1.4,7.9,1.3,3.1,3.2,5.3,6,6.8,2.6,1.5,8.4,2.3,17,2.3,8.4-.1,13.3-.3,14.8-.5,3.1-.6,4.9-1.2,5.6-1.6,2.1-1.5,2.2-4.2,2.3-6.5.1-1.8.2-3.4.2-5,.1-3.7-3.2-7.9-3.2-7.9h-4.6l-6.9.3c-1.7.1-2.6,0-2.9-.6-.6-1,0-2.3,1.8-3.6.2-.1.5-.3.6-.5l5.1-4.7c2.5-2.2,4.4-3.9,5.6-5.2,2.6-2.6,4.1-4.7,4.7-6.2,1.3-3.2,1.5-7.1.7-11.7-.2-2.1-.9-3.5-2.1-4.6h0Z"/>
      <path class="cls-1" d="M319.9,99.3c-1.6-.3-4.1-.6-7.6-.6s-7,.3-9.3,1.2c-1.7.7-2.6,1.9-2.6,3.8-.1,1-.1,3.4-.1,7.1v8c-.1,7.8-.1,14.8,0,20.7v15.9c0,5.6,0,9.3.1,11.2,0,3.6.8,4.4,4.1,4.8,2,.3,4.5.5,7.7.5s5.3,0,6.5-.1c3.7-.3,4.7-1.7,5-5.5l.3-6.6c.1-2.6.1-6.1.1-10.4s.1-11.4.2-20.7c0-1.5,0-3.7.1-6.8.1-3,.1-5.3.1-6.8v-11c0-2.4-1.6-3.9-4.8-4.7h0Z"/>
      <path class="cls-1" d="M464.4,125v-6.8c-.3-4.5-1-5.4-5.1-5.9-3.1-.5-6.4-.6-9.7-.2-4.4.2-7,1.2-8,2.9-.8,1.3-1.3,5.3-1.3,11.9-.1,2.5-.1,6.3,0,11.2.1,5,.1,8.8,0,11.3,0,.1-.2,2.1-.3,2.6-.3,1.3-1,1.8-2.1,1.9-1.5.3-2.5-.3-3.1-1.9-.3-1-.6-3.7-.6-7.8v-24.6c0-4.9-1.5-6.4-4.6-7.2-1.1-.3-3.7-.5-7.7-.5s-3.3.1-4.7.2c-2.2.2-4,.8-5.3,2.8-1,1.4-1.6,5.5-1.7,12.5-.1,1.7-.1,6.8-.1,15.1s0,6.8.1,8.6c0,1.8.3,4.5,1,7.8.7,3.3,1.7,5.9,3.1,7.8,2.5,3.2,6.1,5,10.8,5.5,3.5.1,6.8-.5,9.6-1.8,1.6-.8,3.1-1.8,4.5-3.2.8-1,1.4-1.3,1.6-.7.1.1.3,1.5.7,2.1.7,1.4,1.6,2.3,2.9,2.9,1.6.7,4.5,1,8.6,1s6.3-.5,8.7-1.3c1.8-.7,2.8-1.9,2.8-3.8.1-1.7.2-4.4.2-8-.1-5.8-.1-14.4-.1-26-.1-2.3-.1-5-.1-8.4h0Z"/>
      <path class="cls-1" d="M421.1,91.8c4.4-.2,7-1.2,8-2.9.8-1.3,1.3-5.3,1.3-11.9v-22.3c0-2.1.5-4.2,2.4-4.7,3.8-.9,3.7,4.2,3.7,9.9v24.4c0,2.4.3,4,1.1,5,.6,1,1.7,1.7,3.4,2.1,1.3.3,3.8.6,7.7.6s3.4-.1,4.7-.2c2-.2,3.8-.8,5-2.8,1-1.5,1.7-5.6,1.8-12.5.1-6.8.2-11.7.2-14.9v-8.6c0-12.8-3.9-21.3-15-21.1-8.9.2-12.8,2.3-16,8.8-1.3,2.5-2,6.1-2.8,6.1s-.7-4.1-1.5-8.6c-1-5.8-3.3-6.3-7.6-6.5-4.8-.2-11.5.7-11.5,5s-.1,10.8-.1,34,.1,5,.1,8.6v7.1c0,3.6.7,4.3,4,4.9,3.4.6,7.1.8,10.9.5h0Z"/>
      <path class="cls-1" d="M372.8,91.9c8.4,0,15.1-2.3,20.3-6.9,5.6-5.2,8.5-13.2,8.5-23.8.1-10.9-2.9-18.9-8.9-24-4.6-3.8-10.6-5.8-18.3-6-8.4,0-15,2.3-20.1,7-5.8,5.3-8.8,13.2-8.8,23.7s2.8,17.9,8.1,23c4.8,4.6,11.2,6.9,19.4,7h0ZM373.4,49.4c2.6-.1,3.9,3.4,3.9,10.8s0,.7.1,1.7c0,2.1-.1,2.9-.1,5-.2,3.9-1.5,7.1-4.2,7.1-2.5-.1-3.8-3.6-3.8-10.2.1-3.4-.6-14.2,4.1-14.4h0Z"/>
      <path class="cls-1" d="M106.3,37.5l-1.7-.9c5.5-12.5.3-27.4-11.9-33.7-12.2-6.3-27.4-1.9-34.4,9.9l-1.7-.9c-1.9-1-4-1.1-6-.5-2,.6-3.6,2-4.6,3.9l-5.3,10.2c-2,3.9-.5,8.6,3.4,10.6l4.9,2.5c-1,4.2-3.9,12.8-11.3,20.3-6.5,6.5-11.9,10.5-15.3,12.6-3.1,1.9-5.6,4.7-7.3,8l-4.1,7.9c-.7,1.3-1,2.8-1,4.2-1,.6-1.9,1.4-2.5,2.5l-6.8,13.2c-.8,1.4-.9,3.1-.4,4.7.5,1.6,1.6,2.8,3,3.6l49.2,25.4c.9.5,1.8.7,2.8.7,2.2,0,4.3-1.2,5.4-3.3l6.8-13.2c.6-1.1.8-2.3.6-3.5,1.2-.8,2.2-2,2.8-3.3l4.1-7.9c1.7-3.3,2.5-6.9,2.3-10.6-.2-4-.1-10.7,1.5-19.8,1.8-10.3,7.1-17.7,10-21l4.9,2.5h0c1.2.6,2.4.9,3.6.9,2.8,0,5.6-1.5,7-4.2l5.3-10.2c2-3.8.5-8.6-3.4-10.6h0ZM89.1,9.8c8.4,4.3,12,14.5,8.5,23.2l-32.3-16.7c5-7.9,15.4-10.9,23.8-6.5ZM54.6,133.2l-46.1-23.8,5.3-10.2,46.1,23.8s-5.3,10.2-5.3,10.2ZM71.2,78.8c-1.7,9.8-1.8,17.1-1.6,21.5.1,2.2-.4,4.5-1.5,6.6l-4.1,7.9c-.4.7-1.3,1-2,.6l-13.1-6.7-30.4-15.7c-.7-.4-1-1.3-.6-2l4.1-7.9c1.1-2.1,2.6-3.8,4.5-5,3.7-2.4,9.6-6.7,16.6-13.7,7.8-7.8,11.3-16.6,12.9-22.1l25.6,13.2c-3.6,4.5-8.7,12.5-10.6,23.3h0ZM97.4,54.7s0,0,0,0l-49.7-25.7,5.3-10.2,49.7,25.7-5.3,10.2h0Z"/>
      <path class="cls-1" d="M13.5,136.7c0-.2-.2-.4-.3-.5-.1-.2-.2-.3-.4-.5-.1-.1-.3-.3-.5-.4-.2-.1-.4-.2-.6-.3-.2,0-.4-.1-.6-.2-1-.2-2.1.1-2.9.9-.1.1-.3.3-.4.5-.1.2-.2.4-.3.5,0,.2-.1.4-.2.6,0,.2,0,.4,0,.6s0,.4,0,.6c0,.2.1.4.2.6,0,.2.2.4.3.6.1.2.3.3.4.5.1.1.3.3.5.4.2.1.4.2.5.3.2,0,.4.1.6.2.2,0,.4,0,.6,0,.8,0,1.6-.3,2.2-.9.1-.1.3-.3.4-.5.1-.2.2-.4.3-.6,0-.2.1-.4.2-.6,0-.2,0-.4,0-.6s0-.4,0-.6c0-.2-.1-.4-.2-.6h0Z"/>
      <path class="cls-1" d="M19.3,157c-.2-.1-.4-.2-.5-.3-.2,0-.4-.1-.6-.2-1-.2-2.1.1-2.9.9-.1.1-.3.3-.4.5-.1.2-.2.4-.3.5,0,.2-.1.4-.2.6s0,.4,0,.6,0,.4,0,.6c0,.2.1.4.2.6s.2.4.3.6c.1.2.2.3.4.5.1.1.3.3.5.4.2.1.3.2.6.3.2,0,.4.1.6.2.2,0,.4,0,.6,0,.8,0,1.6-.3,2.2-.9.1-.1.3-.3.4-.5.1-.2.2-.4.3-.6,0-.2.1-.4.2-.6,0-.2,0-.4,0-.6,0-.8-.3-1.6-.9-2.2-.1-.1-.3-.3-.5-.4h0Z"/>
      <path class="cls-1" d="M28.3,144c-.2-.1-.4-.2-.5-.3-.2,0-.4-.1-.6-.2-1-.2-2.1.1-2.9.9-.1.1-.3.3-.4.5-.1.2-.2.4-.3.5,0,.2-.1.4-.2.6s0,.4,0,.6,0,.4,0,.6c0,.2.1.4.2.6s.2.4.3.6c.1.2.2.3.4.5.1.1.3.3.5.4.2.1.4.2.5.3.2,0,.4.1.6.2.2,0,.4,0,.6,0,.8,0,1.6-.3,2.2-.9.1-.1.3-.3.4-.5.1-.2.2-.4.3-.6,0-.2.1-.4.2-.6,0-.2,0-.4,0-.6,0-.8-.3-1.6-.9-2.2-.1-.1-.3-.3-.5-.4h0Z"/>
      <path class="cls-1" d="M28.7,166.6c-.6.6-.9,1.4-.9,2.2s.3,1.6.9,2.2c.6.6,1.4.9,2.2.9s1.7-.3,2.2-.9c.6-.6.9-1.4.9-2.2s-.3-1.6-.9-2.2c-1.2-1.2-3.3-1.2-4.5,0Z"/>
      <path class="cls-1" d="M38.7,152.6c-.6.6-.9,1.4-.9,2.2s.3,1.6.9,2.2c.6.6,1.4.9,2.2.9s1.7-.3,2.2-.9c.6-.6.9-1.4.9-2.2s-.3-1.6-.9-2.2c-1.2-1.2-3.3-1.2-4.5,0Z"/>
      <path class="cls-1" d="M140.6,40.4c-1.9,0-3.5,1.6-3.5,3.5v86c0,1.9,1.6,3.5,3.5,3.5s3.5-1.6,3.5-3.5V43.9c0-1.9-1.6-3.5-3.5-3.5Z"/>
    </g>
  </g>
</svg>