<?xml version="1.0" encoding="UTF-8"?>
<svg id="Capa_2" data-name="Capa 2" xmlns="http://www.w3.org/2000/svg" viewBox="0 0 642.16 172.39">
  <g id="Capa_2-2" data-name="Capa 2">
    <g id="Capa_1-2" data-name="Capa 1-2">
      <g>
        <path d="M497.77,111.71c-18.21-.57-28.85,10.76-28.85,30.46,0,18.21,8.7,29.43,26.34,29.88,15.46.23,26.11-6.75,26.56-20.95,0-3.66-2.06-3.89-6.3-4.12-5.15-.12-9.05-.12-11.91,0-3.55.11-4.35.92-4.69,2.63,0,1.26-.92,4.35-2.75,4.35-1.95.11-2.98-1.37-3.32-6.53v-2.18c.11-.8.57-1.26,1.37-1.26,14.66.23,23.13-.11,25.3-.92,1.95-.8,2.98-4.12,3.09-9.73.34-13.51-9.62-21.64-24.85-21.64h0ZM498.46,131.4v2.86c-.34,1.03-1.83,1.49-4.35,1.26-1.37,0-1.03-3.32-.92-4.58.11-2.18,1.03-3.66,2.98-3.55,1.72.11,2.4,1.37,2.29,4.01h0Z" style="fill: #f3c332; stroke-width: 0px;"/>
        <path d="M366.32,27.8c1.49,1.03,3.21.8,4.92-.69,3.09-2.29,6.07-4.7,8.93-7.33,3.21-2.75,5.5-4.81,6.87-6.07,1.95-1.83,2.63-3.43,2.06-4.92-.8-1.72-2.52-3.89-5.04-6.41-3.21-2.75-4.35-2.63-7.56,0-.8.57-4.01,3.55-5.5,4.81-3.55,2.86-6.64,5.61-9.5,8.36-2.17,1.95-2.29,4.24-.23,6.99,1.72,2.4,3.32,4.24,5.04,5.27h.01Z" style="fill: #f3c332; stroke-width: 0px;"/>
        <path d="M566.36,112.17c-8.93.23-12.82,2.29-16.03,8.82-1.26,2.52-1.95,6.07-2.75,6.07-.69,0-.69-4.12-1.49-8.59-1.03-5.84-3.32-6.3-7.56-6.53-4.81-.23-11.45.69-11.45,5.04,0,5.15-.11,10.76-.11,34.01,0,2.18.11,5.04.11,8.59v7.1c0,3.55.69,4.35,4.01,4.92,3.43.57,7.1.8,10.88.46,4.35-.23,6.98-1.14,8.01-2.86.8-1.26,1.26-5.27,1.26-11.91v-22.33c0-2.06.46-4.24,2.4-4.69,3.78-.92,3.66,4.24,3.66,9.85v24.39c0,2.4.34,4.01,1.15,5.04.57,1.03,1.72,1.72,3.43,2.06,1.26.34,3.78.57,7.67.57,1.37,0,3.43-.12,4.69-.23,1.95-.23,3.78-.8,5.04-2.75,1.03-1.49,1.72-5.61,1.83-12.48.11-6.76.23-11.68.23-14.89v-8.59c0-12.82-3.89-21.3-15-21.07h.02Z" style="fill: #f3c332; stroke-width: 0px;"/>
        <path d="M633.22,117.43c-4.58-3.78-10.65-5.84-18.32-5.95-8.36,0-15,2.29-20.15,6.98-5.84,5.27-8.82,13.17-8.82,23.7s2.75,17.86,8.13,23.01c4.81,4.58,11.22,6.87,19.35,6.99,8.36,0,15.11-2.29,20.27-6.87,5.61-5.15,8.47-13.17,8.47-23.82.11-10.88-2.86-18.89-8.93-24.05h0ZM618,147.78c-.23,3.89-1.49,6.53-4.24,6.53-2.52-.12-3.78-3.55-3.78-10.19.12-3.43-.57-14.2,4.12-14.43,2.63-.11,3.89,4.01,3.89,11.34v6.75h.01Z" style="fill: #f3c332; stroke-width: 0px;"/>
        <path d="M245.3,87.91c2.63,2.63,6.18,3.89,10.76,3.89,2.75,0,5.27-.57,7.21-1.72,1.15-.57,2.18-1.26,3.21-2.29.57-.69,1.15-1.03,1.49-1.03.46,0,.57.69.57,1.37v.57c0,.34,5.84,3.09,5.84,3.09,3.09.11,6.53,0,10.19-.46,3.09-.57,3.66-1.6,3.78-4.92.11-2.4.11-7.67.11-16.03,0-14.77.34-31.6.23-33.09-.23-3.78-4.81-4.92-10.99-4.92-6.64,0-11.11.8-11.11,3.21,0,.8-.11,1.26-.34,1.6-.23.23-.46.34-.8.11l-5.27-4.47c-2.06-1.03-4.24-1.37-6.98-1.14-4.35.34-7.79,2.29-10.3,5.84-3.55,5.15-5.38,13.51-5.38,24.96,0,12.25,2.63,20.72,7.79,25.42h-.01ZM263.5,49.78c1.72.23,2.17,2.75,2.17,4.58v16.03c0,2.75-.8,4.24-2.52,4.35-1.15,0-1.72-.57-2.18-1.95-.23-.57-.34-1.14-.46-1.6l-.34-3.32c-.11-2.29-.23-5.04-.23-8.36,0-6.87,1.26-10.08,3.55-9.73h0Z" style="fill: #f3c332; stroke-width: 0px;"/>
        <path d="M189.08,59.4c2.63,2.18,5.84,3.55,9.73,4.12,2.4.34,5.5.57,9.39.69,2.4.11,3.66,1.49,3.66,4.01,0,3.55-.11,5.61-.23,6.07-.46,1.72-1.37,2.52-2.86,2.52-1.03,0-1.83-.69-2.18-1.95-.11-.34-.23-2.86-.34-3.78,0-.23,0-.46-.11-.69-.34-1.49-1.26-2.18-4.58-2.29-6.3-.34-10.42-.57-12.48-.46-4.01.11-5.27,1.72-5.38,5.5-.11,4.01.92,7.56,3.32,10.65,4.12,5.61,11.45,8.24,21.87,7.9,7.9-.23,13.85-2.29,17.98-6.07,5.15-5.04,6.53-10.19,6.53-18.09,0-5.95-1.14-10.53-3.55-13.63-2.52-3.43-6.07-5.27-10.76-5.5l-2.98-.23c-1.72-.12-3.21-.12-4.24-.23-3.09-.34-4.92-.8-5.5-1.49-.57-.69-.92-1.72-.92-3.09,0-3.78,0-5.95.11-6.41.34-1.26,1.03-1.95,2.29-1.95,1.15,0,1.83.57,2.18,1.83.11.23.11,1.6.11,4.12,0,1.95.57,2.4,2.4,2.75,4.35.57,10.19.69,14.31-1.83,3.43-2.06,3.78-4.12,3.78-5.84,0-5.72-2.06-12.94-10.42-15.92-3.32-1.14-7.33-1.72-12.14-1.72-9.05,0-15.8,2.52-20.15,7.67-3.09,3.78-4.81,8.59-4.92,14.66-.23,8.7,1.83,14.89,6.07,18.66v.02Z" style="fill: #f3c332; stroke-width: 0px;"/>
        <path d="M235,100.26c-2.41-.8-5.5-1.37-9.16-1.49-4.12,0-6.99.46-8.7,1.26-2.06.92-3.09,2.29-3.21,4.01v10.08c0,1.95-.12,2.98-.34,3.32-.34.46-.8.23-1.49-.57-1.95-1.95-3.55-3.21-4.92-3.78-2.18-1.03-4.58-1.37-7.44-1.15-4.69.34-8.36,2.29-10.99,5.84-3.78,5.15-5.73,13.51-5.73,24.96,0,12.25,2.75,20.73,8.24,25.42,2.86,2.63,6.64,3.89,11.45,3.89,2.98,0,5.61-.57,7.79-1.72,1.14-.57,2.29-1.26,3.32-2.29.69-.69,1.26-1.03,1.6-1.03.46,0,.69.69.69,1.37v.57c0,.34,3.78,2.98,6.07,3.09h.11c3.32.12,6.87,0,10.88-.46,3.21-.57,3.89-1.6,4.01-4.92.11-2.41.11-7.67.11-16.03,0-14.31,0-24.96.12-32.06.34-7.67.34-12.6.11-14.89-.11-1.72-1.03-2.86-2.52-3.43h0ZM213.01,150.64c0,2.75-.92,4.24-2.63,4.35-1.26,0-1.95-.57-2.4-1.95-.23-.57-.34-1.15-.46-1.6l-.34-3.32c-.11-2.29-.23-5.04-.23-8.36,0-6.87,1.26-10.08,3.78-9.73,1.03.11,1.6.69,1.83,1.95.34.69.46,1.6.46,2.63v16.03h-.01Z" style="fill: #f3c332; stroke-width: 0px;"/>
        <path d="M271.06,111.71c-18.21-.57-28.85,10.76-28.85,30.46,0,18.21,8.7,29.43,26.34,29.88,15.46.23,26.11-6.75,26.56-20.95,0-3.66-2.06-3.89-6.3-4.12-5.15-.12-9.05-.12-11.91,0-3.55.11-4.35.92-4.69,2.63,0,1.26-.92,4.35-2.75,4.35-1.95.11-2.98-1.37-3.32-6.53v-2.18c.11-.8.57-1.26,1.37-1.26,14.66.23,23.13-.11,25.3-.92,1.95-.8,2.98-4.12,3.09-9.73.34-13.51-9.62-21.64-24.85-21.64h.01ZM271.75,131.4v2.86c-.34,1.03-1.83,1.49-4.35,1.26-1.37,0-1.03-3.32-.92-4.58.11-2.18,1.03-3.66,2.98-3.55,1.72.11,2.4,1.37,2.29,4.01h0Z" style="fill: #f3c332; stroke-width: 0px;"/>
        <path d="M389.8,111.94c-5.38-.34-9.85,1.37-13.4,5.04-.69.69-1.26.92-1.6.69-.34-.12-.46-.92-.46-2.29v-11.34c0-1.72-1.03-3.09-3.09-4.01-1.6-.8-4.47-1.26-8.59-1.26-3.78.12-6.76.69-9.05,1.49-1.6.57-2.52,1.72-2.63,3.43v14.89c0,3.55,0,8.82.12,16.03,0,7.21,0,12.48.11,16.03,0,9.5,0,14.77.11,16.03.12,3.55.69,4.35,3.89,4.92,4.01.57,7.56.69,10.88.46,3.66-.23,5.72-1.14,6.07-2.63.34-1.26.11-2.41.8-2.41.46,0,1.38.57,2.86,1.83,2.4,2.06,5.72,3.09,9.96,3.09,7.67,0,13.4-4.58,16.03-11.22s3.66-12.82,3.66-19.24c0-11.57-1.72-19.58-5.04-24.05-2.63-3.32-6.18-5.15-10.65-5.5l.02.02ZM380.87,152.01c-.46,1.83-1.37,3.09-2.86,2.98-2.18-.11-2.52-1.6-2.63-4.35-.11-3.89,0-9.28.11-16.03,0-1.26.11-2.06.23-2.63.57-1.26,1.26-1.83,2.06-1.95,1.72-.34,2.75.92,3.32,4.01.34,1.26.46,3.55.46,6.87,0,5.38-.23,9.16-.69,11.11h0Z" style="fill: #f3c332; stroke-width: 0px;"/>
        <path d="M339.42,34.21c-1.15-1.03-3.09-1.72-5.73-1.95-.92-.11-5.95-.46-15-.8-9.96-.23-16.6-.11-20.04.34-2.86.46-3.78,2.06-4.12,6.07-.23,1.26-.34,3.21-.23,5.84s.34,4.58.69,5.61c.57,1.72,1.83,2.63,3.78,2.75h12.37c1.6,0,1.37,1.83.46,2.75l-8.13,7.79c-3.43,3.21-6.18,5.95-8.36,8.13-1.03,1.03-1.72,2.63-1.83,4.58-.23,2.4.23,5.04,1.37,7.9,1.26,3.09,3.21,5.27,5.95,6.76,2.63,1.49,8.36,2.29,16.95,2.29,8.36-.11,13.28-.34,14.77-.46,3.09-.57,4.92-1.15,5.61-1.6,2.06-1.49,2.17-4.24,2.29-6.53.12-1.83.23-3.43.23-5.04.11-3.66-3.21-7.9-3.21-7.9h-4.58l-6.87.34c-1.72.11-2.63,0-2.86-.57-.57-1.03,0-2.29,1.83-3.55.23-.12.46-.34.57-.46l5.15-4.7c2.52-2.17,4.35-3.89,5.61-5.15,2.63-2.63,4.12-4.69,4.69-6.18,1.26-3.21,1.49-7.1.69-11.68-.23-2.06-.92-3.55-2.06-4.58h0Z" style="fill: #f3c332; stroke-width: 0px;"/>
        <path d="M319.84,99.34c-1.6-.34-4.12-.57-7.56-.57-3.89,0-6.99.34-9.28,1.15-1.72.69-2.63,1.95-2.63,3.78-.12,1.03-.12,3.44-.12,7.1v8.01c-.11,7.79-.11,14.77,0,20.72v15.92c0,5.61,0,9.27.12,11.22,0,3.55.8,4.35,4.12,4.81,1.95.34,4.47.46,7.67.46s5.27,0,6.53-.11c3.66-.34,4.69-1.72,5.04-5.5l.34-6.64c.12-2.63.12-6.07.12-10.42s.11-11.45.23-20.73c0-1.49,0-3.66.11-6.75.11-2.98.11-5.27.11-6.76v-10.99c0-2.4-1.6-3.89-4.81-4.69h.01Z" style="fill: #f3c332; stroke-width: 0px;"/>
        <path d="M464.34,124.99v-6.76c-.34-4.47-1.03-5.38-5.15-5.95-3.09-.46-6.41-.57-9.73-.23-4.35.23-6.98,1.15-8.01,2.86-.8,1.26-1.26,5.27-1.26,11.91-.11,2.52-.11,6.3,0,11.22.11,5.04.11,8.82,0,11.34,0,.11-.23,2.06-.34,2.63-.34,1.26-1.03,1.83-2.06,1.95-1.49.34-2.52-.34-3.09-1.95-.34-1.03-.57-3.66-.57-7.79v-24.62c0-4.92-1.49-6.41-4.58-7.21-1.15-.34-3.66-.46-7.67-.46-1.37,0-3.32.11-4.69.23-2.18.23-4.01.8-5.27,2.75-1.03,1.37-1.6,5.5-1.72,12.48-.12,1.72-.12,6.76-.12,15.11,0,3.89,0,6.76.12,8.59,0,1.83.34,4.46,1.03,7.79.69,3.32,1.72,5.95,3.09,7.79,2.52,3.21,6.07,5.04,10.76,5.5,3.55.11,6.76-.46,9.62-1.83,1.6-.8,3.09-1.83,4.47-3.21.8-1.03,1.37-1.26,1.6-.69.11.11.34,1.49.69,2.06.69,1.37,1.6,2.29,2.86,2.86,1.6.69,4.47,1.03,8.59,1.03,3.32,0,6.3-.46,8.7-1.26,1.83-.69,2.75-1.95,2.75-3.78.11-1.72.23-4.35.23-8.01-.12-5.84-.12-14.43-.12-25.99-.11-2.29-.11-5.04-.11-8.36h-.02Z" style="fill: #f3c332; stroke-width: 0px;"/>
        <path d="M421.06,91.8c4.35-.23,6.98-1.15,8.01-2.86.8-1.26,1.26-5.27,1.26-11.91v-22.33c0-2.06.46-4.24,2.4-4.69,3.78-.92,3.66,4.24,3.66,9.85v24.39c0,2.41.34,4.01,1.15,5.04.57,1.03,1.72,1.72,3.43,2.06,1.26.34,3.78.57,7.67.57,1.37,0,3.43-.11,4.69-.23,1.95-.23,3.78-.8,5.04-2.75,1.03-1.49,1.72-5.61,1.83-12.48.11-6.75.23-11.68.23-14.88v-8.59c0-12.82-3.89-21.3-15-21.07-8.93.23-12.82,2.29-16.03,8.82-1.26,2.52-1.95,6.07-2.75,6.07-.69,0-.69-4.12-1.49-8.59-1.03-5.84-3.32-6.3-7.56-6.53-4.81-.23-11.45.69-11.45,5.04,0,5.15-.11,10.76-.11,34.01,0,2.18.11,5.04.11,8.59v7.1c0,3.55.69,4.35,4.01,4.92,3.43.57,7.1.8,10.88.46h.02Z" style="fill: #f3c332; stroke-width: 0px;"/>
        <path d="M372.74,91.92c8.36,0,15.11-2.29,20.27-6.87,5.61-5.15,8.47-13.17,8.47-23.82.11-10.88-2.86-18.89-8.93-24.04-4.58-3.78-10.65-5.84-18.32-5.95-8.36,0-15,2.29-20.15,6.98-5.84,5.27-8.82,13.17-8.82,23.7s2.75,17.86,8.13,23.01c4.81,4.58,11.22,6.87,19.35,6.98h0ZM373.42,49.44c2.63-.11,3.89,3.44,3.89,10.76,0,.11,0,.69.11,1.72,0,2.06-.11,2.86-.11,5.04-.23,3.89-1.49,7.1-4.24,7.1-2.52-.11-3.78-3.55-3.78-10.19.11-3.44-.57-14.2,4.12-14.43h0Z" style="fill: #f3c332; stroke-width: 0px;"/>
        <path d="M106.25,37.49l-1.74-.9c5.52-12.46.33-27.42-11.86-33.72-12.2-6.3-27.4-1.86-34.36,9.86l-1.74-.9c-1.87-.96-3.99-1.14-6-.5-2,.64-3.63,2.02-4.6,3.88l-5.28,10.23c-1.99,3.85-.47,8.6,3.38,10.59l4.93,2.54c-1.04,4.21-3.93,12.79-11.35,20.27-6.48,6.53-11.89,10.49-15.29,12.65-3.06,1.95-5.57,4.72-7.26,8l-4.08,7.9c-.7,1.35-1.02,2.79-1.03,4.22-1.02.56-1.88,1.42-2.46,2.53l-6.83,13.23c-.75,1.45-.89,3.1-.39,4.66.5,1.55,1.57,2.82,3.02,3.57l49.19,25.39c.89.46,1.85.68,2.79.68,2.21,0,4.35-1.21,5.44-3.3l6.83-13.23c.57-1.11.77-2.31.64-3.46,1.18-.85,2.16-1.96,2.84-3.29l4.08-7.9c1.7-3.29,2.5-6.94,2.32-10.56-.2-4.02-.11-10.72,1.46-19.79,1.78-10.32,7.13-17.69,9.96-20.99l4.91,2.54h0c1.15.59,2.38.87,3.59.87,2.85,0,5.6-1.55,7-4.25l5.28-10.23c1.99-3.85.47-8.6-3.38-10.59h0ZM89.06,9.82c8.4,4.34,12.03,14.53,8.47,23.17l-32.26-16.66c4.98-7.9,15.39-10.85,23.79-6.51ZM54.55,133.26l-46.14-23.82,5.26-10.19,46.14,23.82s-5.26,10.19-5.26,10.19ZM71.18,78.81c-1.69,9.78-1.78,17.1-1.56,21.51.11,2.24-.39,4.52-1.46,6.58l-4.08,7.9c-.38.73-1.27,1.01-2,.64l-13.07-6.74-30.44-15.71c-.73-.38-1.01-1.27-.64-2l4.08-7.9c1.06-2.06,2.63-3.79,4.52-5,3.73-2.38,9.64-6.7,16.63-13.73,7.76-7.82,11.33-16.63,12.91-22.11l25.64,13.24c-3.55,4.46-8.67,12.47-10.55,23.33h.02ZM97.4,54.72s-.04.03-.06.02l-49.73-25.72,5.33-10.24,49.73,25.72-5.28,10.22h0Z" style="fill: #f3c332; stroke-width: 0px;"/>
        <path d="M13.5,136.7c-.08-.19-.18-.37-.29-.54-.12-.18-.25-.34-.39-.49-.15-.14-.31-.28-.49-.39-.17-.12-.35-.21-.55-.29-.19-.08-.39-.14-.59-.18-1.03-.21-2.13.13-2.87.86-.14.15-.28.31-.39.49-.12.17-.21.35-.29.54-.08.2-.14.4-.19.6-.04.2-.06.41-.06.62s.02.41.06.62c.05.2.11.4.19.59.08.2.17.38.29.55.11.18.25.34.39.49.15.14.31.28.49.39.17.12.35.21.54.29.2.08.4.14.6.18.2.04.41.07.62.07.83,0,1.65-.34,2.25-.93.14-.15.27-.31.39-.49.11-.17.21-.35.29-.55.08-.19.14-.39.18-.59.05-.21.07-.41.07-.62s-.02-.42-.07-.62c-.04-.2-.1-.4-.18-.6h0Z" style="fill: #f3c332; stroke-width: 0px;"/>
        <path d="M19.27,157.04c-.17-.12-.35-.21-.54-.29-.2-.08-.39-.14-.6-.18-1.03-.21-2.13.13-2.87.86-.14.15-.27.31-.39.49-.11.17-.21.35-.29.54-.08.19-.14.4-.18.6s-.07.41-.07.62.03.41.07.62c.04.2.1.4.18.59s.18.38.29.55c.12.18.25.34.39.49.15.14.31.27.49.39.17.11.35.21.55.29.19.08.39.14.59.18.21.04.42.07.62.07.84,0,1.65-.34,2.25-.93.14-.15.28-.31.39-.49.12-.17.22-.36.3-.55.07-.19.14-.39.18-.59.04-.21.06-.41.06-.62,0-.84-.34-1.65-.93-2.25-.15-.14-.31-.28-.49-.39h0Z" style="fill: #f3c332; stroke-width: 0px;"/>
        <path d="M28.27,144.04c-.17-.12-.35-.21-.54-.29-.2-.08-.39-.14-.6-.18-1.03-.21-2.13.13-2.87.86-.14.15-.27.31-.39.49-.11.17-.21.35-.29.54-.08.19-.14.4-.18.6s-.07.41-.07.62.03.41.07.62c.04.2.1.4.18.59s.18.38.29.55c.12.18.25.34.39.49.15.14.31.27.49.39.17.11.35.21.55.29.19.08.39.14.59.18.21.04.42.07.62.07.84,0,1.65-.34,2.25-.93.14-.15.28-.31.39-.49.12-.17.22-.36.3-.55.07-.19.14-.39.18-.59.04-.21.06-.41.06-.62,0-.84-.34-1.65-.93-2.25-.15-.14-.31-.28-.49-.39h0Z" style="fill: #f3c332; stroke-width: 0px;"/>
        <path d="M28.69,166.64c-.59.59-.93,1.4-.93,2.24s.34,1.65.93,2.25c.59.59,1.41.93,2.25.93s1.65-.34,2.24-.93c.59-.6.93-1.41.93-2.25s-.34-1.65-.93-2.24c-1.18-1.19-3.31-1.19-4.49,0Z" style="fill: #f3c332; stroke-width: 0px;"/>
        <path d="M38.69,152.64c-.59.59-.93,1.4-.93,2.24s.34,1.65.93,2.25c.59.59,1.41.93,2.25.93s1.65-.34,2.24-.93c.59-.6.93-1.41.93-2.25s-.34-1.65-.93-2.24c-1.18-1.19-3.31-1.19-4.49,0Z" style="fill: #f3c332; stroke-width: 0px;"/>
        <path d="M140.6,40.38c-1.93,0-3.5,1.57-3.5,3.5v86c0,1.93,1.57,3.5,3.5,3.5s3.5-1.57,3.5-3.5V43.88c0-1.93-1.57-3.5-3.5-3.5Z" style="fill: #f3c332; stroke-width: 0px;"/>
      </g>
    </g>
  </g>
</svg>